<svg xmlns="http://www.w3.org/2000/svg" viewBox="0 0 640 400" role="img" aria-labelledby="title desc">
  <title id="title">Перекус</title>
  <desc id="desc">Простое изображение перекуса</desc>
  <rect width="640" height="400" rx="32" fill="#fff1f2"/>
  <path d="M0 300c76-31 139-27 195-2 80 35 170 37 261 1 73-29 133-20 184 10v91H0z" fill="#fecdd3"/>
  <circle cx="258" cy="214" r="90" fill="#ef4444"/>
  <circle cx="270" cy="204" r="62" fill="#f87171"/>
  <path d="M256 126c24-50 68-70 120-66-20 44-60 68-110 70z" fill="#22c55e"/>
  <rect x="350" y="158" width="128" height="124" rx="24" fill="#fde68a"/>
  <path d="M374 190h76M374 222h76M374 254h50" stroke="#b45309" stroke-width="14" stroke-linecap="round"/>
  <path d="M174 302h304" stroke="#9f1239" stroke-width="20" stroke-linecap="round"/>
</svg>
